<svg width="171" height="33" viewBox="0 0 171 33" fill="none" xmlns="http://www.w3.org/2000/svg">
<path d="M8.38875 24.224C6.83142 24.224 5.42342 23.9573 4.16475 23.424C2.92742 22.8907 1.94608 22.1227 1.22075 21.12C0.495417 20.1173 0.122083 18.9333 0.10075 17.568H4.90075C4.96475 18.4853 5.28475 19.2107 5.86075 19.744C6.45808 20.2773 7.26875 20.544 8.29275 20.544C9.33808 20.544 10.1594 20.2987 10.7568 19.808C11.3541 19.296 11.6528 18.6347 11.6528 17.824C11.6528 17.1627 11.4501 16.6187 11.0448 16.192C10.6394 15.7653 10.1274 15.4347 9.50875 15.2C8.91142 14.944 8.07942 14.6667 7.01275 14.368C5.56208 13.9413 4.37808 13.5253 3.46075 13.12C2.56475 12.6933 1.78608 12.064 1.12475 11.232C0.48475 10.3787 0.16475 9.248 0.16475 7.84C0.16475 6.51733 0.495417 5.36533 1.15675 4.384C1.81808 3.40267 2.74608 2.656 3.94075 2.144C5.13542 1.61067 6.50075 1.344 8.03675 1.344C10.3408 1.344 12.2074 1.90933 13.6368 3.04C15.0874 4.14933 15.8874 5.70667 16.0368 7.712H11.1088C11.0661 6.944 10.7354 6.31467 10.1168 5.824C9.51942 5.312 8.71942 5.056 7.71675 5.056C6.84208 5.056 6.13808 5.28 5.60475 5.728C5.09275 6.176 4.83675 6.82667 4.83675 7.68C4.83675 8.27733 5.02875 8.77867 5.41275 9.184C5.81808 9.568 6.30875 9.888 6.88475 10.144C7.48208 10.3787 8.31408 10.656 9.38075 10.976C10.8314 11.4027 12.0154 11.8293 12.9328 12.256C13.8501 12.6827 14.6394 13.3227 15.3008 14.176C15.9621 15.0293 16.2928 16.1493 16.2928 17.536C16.2928 18.7307 15.9834 19.84 15.3647 20.864C14.7461 21.888 13.8394 22.7093 12.6448 23.328C11.4501 23.9253 10.0314 24.224 8.38875 24.224ZM36.6568 14.752C36.6568 15.392 36.6141 15.968 36.5288 16.48H23.5688C23.6754 17.76 24.1234 18.7627 24.9128 19.488C25.7021 20.2133 26.6728 20.576 27.8248 20.576C29.4888 20.576 30.6728 19.8613 31.3768 18.432H36.2088C35.6968 20.1387 34.7154 21.5467 33.2648 22.656C31.8141 23.744 30.0328 24.288 27.9208 24.288C26.2141 24.288 24.6781 23.9147 23.3128 23.168C21.9688 22.4 20.9128 21.3227 20.1448 19.936C19.3981 18.5493 19.0247 16.9493 19.0247 15.136C19.0247 13.3013 19.3981 11.6907 20.1448 10.304C20.8914 8.91733 21.9368 7.85067 23.2808 7.104C24.6248 6.35733 26.1714 5.984 27.9208 5.984C29.6061 5.984 31.1101 6.34667 32.4328 7.072C33.7768 7.79733 34.8114 8.832 35.5368 10.176C36.2834 11.4987 36.6568 13.024 36.6568 14.752ZM32.0168 13.472C31.9954 12.32 31.5794 11.4027 30.7688 10.72C29.9581 10.016 28.9661 9.664 27.7928 9.664C26.6834 9.664 25.7448 10.0053 24.9768 10.688C24.2301 11.3493 23.7714 12.2773 23.6008 13.472H32.0168ZM49.7508 6.016C51.8628 6.016 53.5694 6.688 54.8708 8.032C56.1721 9.35467 56.8228 11.2107 56.8228 13.6V24H52.3428V14.208C52.3428 12.8 51.9908 11.7227 51.2868 10.976C50.5828 10.208 49.6228 9.824 48.4068 9.824C47.1694 9.824 46.1881 10.208 45.4628 10.976C44.7588 11.7227 44.4068 12.8 44.4068 14.208V24H39.9268V6.272H44.4068V8.48C45.0041 7.712 45.7614 7.11467 46.6788 6.688C47.6174 6.24 48.6414 6.016 49.7508 6.016ZM59.931 15.072C59.931 13.28 60.283 11.6907 60.987 10.304C61.7123 8.91733 62.6937 7.85067 63.931 7.104C65.1683 6.35733 66.5443 5.984 68.059 5.984C69.211 5.984 70.3097 6.24 71.355 6.752C72.4003 7.24267 73.2323 7.904 73.851 8.736V0.32H78.395V24H73.851V21.376C73.2963 22.2507 72.5177 22.9547 71.515 23.488C70.5123 24.0213 69.3497 24.288 68.027 24.288C66.5337 24.288 65.1683 23.904 63.931 23.136C62.6937 22.368 61.7123 21.2907 60.987 19.904C60.283 18.496 59.931 16.8853 59.931 15.072ZM73.883 15.136C73.883 14.048 73.6697 13.12 73.243 12.352C72.8163 11.5627 72.2403 10.9653 71.515 10.56C70.7897 10.1333 70.011 9.92 69.179 9.92C68.347 9.92 67.579 10.1227 66.875 10.528C66.171 10.9333 65.595 11.5307 65.147 12.32C64.7203 13.088 64.507 14.0053 64.507 15.072C64.507 16.1387 64.7203 17.0773 65.147 17.888C65.595 18.6773 66.171 19.2853 66.875 19.712C67.6003 20.1387 68.3683 20.352 69.179 20.352C70.011 20.352 70.7897 20.1493 71.515 19.744C72.2403 19.3173 72.8163 18.72 73.243 17.952C73.6697 17.1627 73.883 16.224 73.883 15.136Z" fill="white"/>
<path d="M81.6825 12.8C81.6825 10.6027 82.1732 8.64 83.1545 6.912C84.1572 5.16267 85.5118 3.808 87.2185 2.848C88.9465 1.86667 90.8772 1.376 93.0105 1.376C95.5065 1.376 97.6932 2.016 99.5705 3.296C101.448 4.576 102.76 6.34667 103.507 8.608H98.3545C97.8425 7.54133 97.1172 6.74133 96.1785 6.208C95.2612 5.67467 94.1945 5.408 92.9785 5.408C91.6772 5.408 90.5145 5.71733 89.4905 6.336C88.4878 6.93333 87.6985 7.78667 87.1225 8.896C86.5678 10.0053 86.2905 11.3067 86.2905 12.8C86.2905 14.272 86.5678 15.5733 87.1225 16.704C87.6985 17.8133 88.4878 18.6773 89.4905 19.296C90.5145 19.8933 91.6772 20.192 92.9785 20.192C94.1945 20.192 95.2612 19.9253 96.1785 19.392C97.1172 18.8373 97.8425 18.0267 98.3545 16.96H103.507C102.76 19.2427 101.448 21.024 99.5705 22.304C97.7145 23.5627 95.5278 24.192 93.0105 24.192C90.8772 24.192 88.9465 23.712 87.2185 22.752C85.5118 21.7707 84.1572 20.416 83.1545 18.688C82.1732 16.96 81.6825 14.9973 81.6825 12.8ZM111.813 9.024C112.389 8.08533 113.136 7.34933 114.053 6.816C114.992 6.28267 116.058 6.016 117.253 6.016V10.72H116.069C114.661 10.72 113.594 11.0507 112.869 11.712C112.165 12.3733 111.813 13.5253 111.813 15.168V24H107.333V6.272H111.813V9.024ZM137.231 6.272L126.255 32.384H121.487L125.327 23.552L118.223 6.272H123.247L127.823 18.656L132.463 6.272H137.231ZM144.126 8.832C144.702 8.02133 145.491 7.34933 146.494 6.816C147.518 6.26133 148.68 5.984 149.982 5.984C151.496 5.984 152.862 6.35733 154.078 7.104C155.315 7.85067 156.286 8.91733 156.99 10.304C157.715 11.6693 158.078 13.2587 158.078 15.072C158.078 16.8853 157.715 18.496 156.99 19.904C156.286 21.2907 155.315 22.368 154.078 23.136C152.862 23.904 151.496 24.288 149.982 24.288C148.68 24.288 147.528 24.0213 146.526 23.488C145.544 22.9547 144.744 22.2827 144.126 21.472V32.448H139.646V6.272H144.126V8.832ZM153.502 15.072C153.502 14.0053 153.278 13.088 152.83 12.32C152.403 11.5307 151.827 10.9333 151.102 10.528C150.398 10.1227 149.63 9.92 148.798 9.92C147.987 9.92 147.219 10.1333 146.494 10.56C145.79 10.9653 145.214 11.5627 144.766 12.352C144.339 13.1413 144.126 14.0693 144.126 15.136C144.126 16.2027 144.339 17.1307 144.766 17.92C145.214 18.7093 145.79 19.3173 146.494 19.744C147.219 20.1493 147.987 20.352 148.798 20.352C149.63 20.352 150.398 20.1387 151.102 19.712C151.827 19.2853 152.403 18.6773 152.83 17.888C153.278 17.0987 153.502 16.16 153.502 15.072ZM166.549 9.952V18.528C166.549 19.1253 166.688 19.5627 166.965 19.84C167.264 20.096 167.754 20.224 168.437 20.224H170.517V24H167.701C163.925 24 162.037 22.1653 162.037 18.496V9.952H159.925V6.272H162.037V1.888H166.549V6.272H170.517V9.952H166.549Z" fill="#F5C249"/>
</svg>
